<?xml version="1.0" encoding="UTF-8"?>
<!DOCTYPE svg PUBLIC "-//W3C//DTD SVG 1.1//EN" "http://www.w3.org/Graphics/SVG/1.1/DTD/svg11.dtd">
<svg xmlns="http://www.w3.org/2000/svg" version="1.1" width="512px" height="512px" style="shape-rendering:geometricPrecision; text-rendering:geometricPrecision; image-rendering:optimizeQuality; fill-rule:evenodd; clip-rule:evenodd" xmlns:xlink="http://www.w3.org/1999/xlink">
<g><path style="opacity:0.985" fill="#000000" d="M 69.5,111.5 C 193.5,111.333 317.5,111.5 441.5,112C 461.333,117.167 473.833,129.667 479,149.5C 479.667,220.167 479.667,290.833 479,361.5C 473.833,381.333 461.333,393.833 441.5,399C 317.5,399.667 193.5,399.667 69.5,399C 49.6667,393.833 37.1667,381.333 32,361.5C 31.3333,290.833 31.3333,220.167 32,149.5C 37.3488,129.652 49.8488,116.985 69.5,111.5 Z M 79.5,143.5 C 196.834,143.333 314.167,143.5 431.5,144C 443.852,146.527 448.852,154.027 446.5,166.5C 382.962,205.766 319.296,244.766 255.5,283.5C 191.704,244.766 128.038,205.766 64.5,166.5C 62.265,153.944 67.265,146.278 79.5,143.5 Z M 63.5,205.5 C 124.278,242.394 184.945,279.56 245.5,317C 252.167,320.333 258.833,320.333 265.5,317C 325.833,279.833 386.167,242.667 446.5,205.5C 446.833,229.833 447.167,254.167 447.5,278.5C 447.644,304.539 447.144,330.539 446,356.5C 443.399,363.053 438.566,366.553 431.5,367C 312.465,367.99 193.465,367.657 74.5,366C 67.9469,363.399 64.4469,358.566 64,351.5C 63.5,302.834 63.3333,254.168 63.5,205.5 Z"/></g>
</svg>
