<?xml version="1.0" standalone="no"?>
<!DOCTYPE svg PUBLIC "-//W3C//DTD SVG 20010904//EN"
 "http://www.w3.org/TR/2001/REC-SVG-20010904/DTD/svg10.dtd">
<svg version="1.0" xmlns="http://www.w3.org/2000/svg"
 width="512.000000pt" height="512.000000pt" viewBox="0 0 512.000000 512.000000"
 preserveAspectRatio="xMidYMid meet">

<g transform="translate(0.000000,512.000000) scale(0.100000,-0.100000)"
fill="#E53935" stroke="#000000">
<path d="M4749 4457 c-31 -7 -69 -21 -84 -31 -15 -10 -492 -364 -1061 -787
-568 -423 -1038 -769 -1044 -769 -5 0 -475 346 -1044 769 -568 423 -1053 780
-1077 793 -37 19 -59 23 -134 23 -81 0 -95 -3 -144 -30 -59 -33 -100 -77 -134
-145 l-22 -45 0 -1670 0 -1670 24 -53 c32 -71 115 -147 183 -167 38 -11 99
-15 230 -15 l178 0 2 1440 3 1440 895 -667 c492 -366 911 -673 930 -681 21 -9
65 -16 110 -16 61 -1 85 4 125 24 28 14 447 321 933 683 486 361 885 657 887
657 3 0 5 -648 5 -1440 l0 -1440 189 0 189 0 63 33 c44 22 75 48 101 82 73 96
69 -34 66 1810 l-3 1660 -30 54 c-69 125 -202 187 -336 158z"/>
</g>
</svg>
